<svg width="12" height="11" viewBox="0 0 12 11" fill="none" xmlns="http://www.w3.org/2000/svg">
<path fill-rule="evenodd" clip-rule="evenodd" d="M6.46699 1.35842L7.43444 3.29117C7.52926 3.48091 7.71227 3.61247 7.92451 3.64292L10.0887 3.95444C10.6235 4.03164 10.8362 4.6797 10.4493 5.05103L8.88424 6.55482C8.73044 6.7027 8.66043 6.91528 8.69682 7.12404L9.06616 9.24708C9.15711 9.77227 8.59814 10.173 8.1202 9.92449L6.18585 8.92142C5.99622 8.82302 5.7691 8.82302 5.57892 8.92142L3.64456 9.92449C3.16662 10.173 2.60765 9.77227 2.69916 9.24708L3.06795 7.12404C3.10433 6.91528 3.03432 6.7027 2.88052 6.55482L1.31551 5.05103C0.928525 4.6797 1.14131 4.03164 1.67603 3.95444L3.84026 3.64292C4.05249 3.61247 4.23606 3.48091 4.33087 3.29117L5.29777 1.35842C5.53702 0.880528 6.22774 0.880528 6.46699 1.35842Z" stroke="#023047" stroke-linecap="round" stroke-linejoin="round"/>
</svg>
